<svg xmlns="http://www.w3.org/2000/svg" xmlns:xlink="http://www.w3.org/1999/xlink" preserveAspectRatio="xMidYMid meet" width="596" height="415" viewBox="0 0 596 415" style="width:100%;height:100%"><defs><animate repeatCount="indefinite" dur="3s" begin="0s" xlink:href="#_R_G_L_2_G_L_0_G_M" fill="freeze" attributeName="opacity" from="0" to="1" keyTimes="0;0.3333333;0.3333333;0.3333339;1" values="0;0;0;1;1" keySplines="0 0 0 0;0 0 0 0;0 0 0 0;0 0 0 0" calcMode="spline"/><animate repeatCount="indefinite" dur="3s" begin="0s" xlink:href="#_R_G_L_2_G_M" fill="freeze" attributeName="opacity" from="0" to="1" keyTimes="0;0.3333333;0.3333339;1" values="0;0;1;1" keySplines="0 0 0 0;0 0 0 0;0 0 0 0" calcMode="spline"/><animate repeatCount="indefinite" dur="3s" begin="0s" xlink:href="#_R_G_L_1_G_L_0_G_M" fill="freeze" attributeName="opacity" from="1" to="0" keyTimes="0;0.3333333;0.3333333;1" values="1;1;0;0" keySplines="0 0 0 0;0 0 0 0;0 0 0 0" calcMode="spline"/><animate repeatCount="indefinite" dur="3s" begin="0s" xlink:href="#_R_G_L_1_G_M" fill="freeze" attributeName="opacity" from="1" to="0" keyTimes="0;0.3333333;0.3333333;1" values="1;1;0;0" keySplines="0 0 0 0;0 0 0 0;0 0 0 0" calcMode="spline"/><clipPath id="_R_G_L_0_G_L_1_C_0"><path id="_R_G_L_0_G_L_1_C_0_P_0" fill-rule="nonzero" d="M308.3 233.67 C245.7,238.13 240.66,244.11 260.06,291.33 C230.19,254.96 224.76,259.82 208.09,338.02 C214.16,267.93 208.98,271.19 158.53,369.03 C199.49,275.61 195.19,276.78 117.5,379.67 C188.08,276.56 185.61,275.17 93.3,366.95 C182.78,270.35 182.41,266.92 89.59,334.24 C183.7,258.51 185.36,253.53 105.64,286.41 C190.62,242.52 194.22,236.49 140.71,228.33 C203.3,223.87 208.34,217.89 188.94,170.67 C218.81,207.04 224.24,202.18 240.91,123.99 C234.84,194.07 240.02,190.81 290.47,92.97 C249.51,186.39 253.82,185.22 331.5,82.33 C260.92,185.44 263.39,186.83 355.71,95.05 C266.22,191.65 266.59,195.08 359.41,127.77 C265.3,203.49 263.64,208.47 343.36,175.59 C258.38,219.49 254.78,225.52 308.3,233.67z "/></clipPath><animate repeatCount="indefinite" dur="3s" begin="0s" xlink:href="#_R_G_L_0_G_L_1_G_G_0_L_5_G" fill="freeze" attributeName="opacity" from="1" to="0" keyTimes="0;0;1" values="1;0;0" keySplines="0.167 0.167 0.833 0.833;0 0 0 0" calcMode="spline"/><animateTransform repeatCount="indefinite" dur="3s" begin="0s" xlink:href="#_R_G_L_0_G_L_1_G_G_0_L_5_G" fill="freeze" attributeName="transform" from="1 1" to="1.42 1.42" type="scale" additive="sum" keyTimes="0;0;1" values="1 1;1.42 1.42;1.42 1.42" keySplines="0.167 0.167 0.833 0.833;0 0 0 0" calcMode="spline"/><animate repeatCount="indefinite" dur="3s" begin="0s" xlink:href="#_R_G_L_0_G_L_1_G_G_0_L_5_G_N_7_T_0_M" fill="freeze" attributeName="opacity" from="1" to="0" keyTimes="0;0;1" values="1;0;0" keySplines="0 0 0 0;0 0 0 0" calcMode="spline"/><animate repeatCount="indefinite" dur="3s" begin="0s" xlink:href="#_R_G_L_0_G_L_1_G_G_0_L_4_G" fill="freeze" attributeName="opacity" from="0" to="0" keyTimes="0;0.1666667;0.3333333;1" values="0;1;0;0" keySplines="0.167 0.167 0.833 0.833;0.167 0.167 0.833 0.833;0 0 0 0" calcMode="spline"/><animateTransform repeatCount="indefinite" dur="3s" begin="0s" xlink:href="#_R_G_L_0_G_L_1_G_G_0_L_4_G" fill="freeze" attributeName="transform" from="1 1" to="1.42 1.42" type="scale" additive="sum" keyTimes="0;0.3333333;1" values="1 1;1.42 1.42;1.42 1.42" keySplines="0.167 0.167 0.833 0.833;0 0 0 0" calcMode="spline"/><animate repeatCount="indefinite" dur="3s" begin="0s" xlink:href="#_R_G_L_0_G_L_1_G_G_0_L_4_G_N_7_T_0_M" fill="freeze" attributeName="opacity" from="1" to="0" keyTimes="0;0.3333333;0.3333333;1" values="1;1;0;0" keySplines="0 0 0 0;0 0 0 0;0 0 0 0" calcMode="spline"/><animate repeatCount="indefinite" dur="3s" begin="0s" xlink:href="#_R_G_L_0_G_L_1_G_G_0_L_3_G" fill="freeze" attributeName="opacity" from="0" to="0" keyTimes="0;0.3333333;0.5;0.6666667;1" values="0;0;1;0;0" keySplines="0.167 0.167 0.833 0.833;0.167 0.167 0.833 0.833;0.167 0.167 0.833 0.833;0 0 0 0" calcMode="spline"/><animateTransform repeatCount="indefinite" dur="3s" begin="0s" xlink:href="#_R_G_L_0_G_L_1_G_G_0_L_3_G" fill="freeze" attributeName="transform" from="1 1" to="1.42 1.42" type="scale" additive="sum" keyTimes="0;0.3333333;0.6666667;1" values="1 1;1 1;1.42 1.42;1.42 1.42" keySplines="0.167 0.167 0.833 0.833;0.167 0.167 0.833 0.833;0 0 0 0" calcMode="spline"/><animate repeatCount="indefinite" dur="3s" begin="0s" xlink:href="#_R_G_L_0_G_L_1_G_G_0_L_3_G_N_7_T_0_M" fill="freeze" attributeName="opacity" from="0" to="0" keyTimes="0;0.3333333;0.3333339;0.6666667;0.6666667;1" values="0;0;1;1;0;0" keySplines="0 0 0 0;0 0 0 0;0 0 0 0;0 0 0 0;0 0 0 0" calcMode="spline"/><animate repeatCount="indefinite" dur="3s" begin="0s" xlink:href="#_R_G_L_0_G_L_1_G_G_0_L_2_G" fill="freeze" attributeName="opacity" from="0" to="0" keyTimes="0;0.6666667;0.8333333;1" values="0;0;1;0" keySplines="0.167 0.167 0.833 0.833;0.167 0.167 0.833 0.833;0.167 0.167 0.833 0.833" calcMode="spline"/><animateTransform repeatCount="indefinite" dur="3s" begin="0s" xlink:href="#_R_G_L_0_G_L_1_G_G_0_L_2_G" fill="freeze" attributeName="transform" from="1 1" to="1.42 1.42" type="scale" additive="sum" keyTimes="0;0.6666667;1" values="1 1;1 1;1.42 1.42" keySplines="0.167 0.167 0.833 0.833;0.167 0.167 0.833 0.833" calcMode="spline"/><animate repeatCount="indefinite" dur="3s" begin="0s" xlink:href="#_R_G_L_0_G_L_1_G_G_0_L_2_G_N_7_T_0_M" fill="freeze" attributeName="opacity" from="0" to="1" keyTimes="0;0.6666667;0.6666672;1" values="0;0;1;1" keySplines="0 0 0 0;0 0 0 0;0 0 0 0" calcMode="spline"/><animate repeatCount="indefinite" dur="3s" begin="0s" xlink:href="#_R_G_L_0_G_L_1_G_G_0_L_1_G" fill="freeze" attributeName="opacity" from="0" to="0" keyTimes="0;1" values="0;0" keySplines="0.167 0.167 0.833 0.833" calcMode="spline"/><animateTransform repeatCount="indefinite" dur="3s" begin="0s" xlink:href="#_R_G_L_0_G_L_1_G_G_0_L_1_G" fill="freeze" attributeName="transform" from="1 1" to="1 1" type="scale" additive="sum" keyTimes="0;1" values="1 1;1 1" keySplines="0.167 0.167 0.833 0.833" calcMode="spline"/><animate repeatCount="indefinite" dur="3s" begin="0s" xlink:href="#_R_G_L_0_G_L_1_G_G_0_L_1_G_N_7_T_0_M" fill="freeze" attributeName="opacity" from="0" to="0" keyTimes="0;1" values="0;0" keySplines="0 0 0 0" calcMode="spline"/><animate repeatCount="indefinite" dur="3s" begin="0s" xlink:href="#_R_G_L_0_G_L_1_G_G_0_L_0_G" fill="freeze" attributeName="opacity" from="0" to="0" keyTimes="0;1" values="0;0" keySplines="0 0 0 0" calcMode="spline"/><animateTransform repeatCount="indefinite" dur="3s" begin="0s" xlink:href="#_R_G_L_0_G_L_1_G_G_0_L_0_G" fill="freeze" attributeName="transform" from="1 1" to="1 1" type="scale" additive="sum" keyTimes="0;1" values="1 1;1 1" keySplines="0 0 0 0" calcMode="spline"/><animate repeatCount="indefinite" dur="3s" begin="0s" xlink:href="#_R_G_L_0_G_L_1_G_G_0_L_0_G_N_7_T_0_M" fill="freeze" attributeName="opacity" from="0" to="0" keyTimes="0;1" values="0;0" keySplines="0 0 0 0" calcMode="spline"/><animateMotion repeatCount="indefinite" dur="3s" begin="0s" xlink:href="#_R_G_L_0_G_L_1_G" fill="freeze" keyTimes="0;1" path="M0.5 -6.5 C0.5,-6.5 0.5,-6.5 0.5,-6.5 " keyPoints="0;1" keySplines="0.167 0.167 0 0" calcMode="spline"/><animateTransform repeatCount="indefinite" dur="3s" begin="0s" xlink:href="#_R_G_L_0_G_L_1_G" fill="freeze" attributeName="transform" from="1 1" to="1 1" type="scale" additive="sum" keyTimes="0;1" values="1 1;1 1" keySplines="1 0 0.95 1" calcMode="spline"/><animateTransform repeatCount="indefinite" dur="3s" begin="0s" xlink:href="#_R_G_L_0_G_L_1_G" fill="freeze" attributeName="transform" from="-225 -225" to="-225 -225" type="translate" additive="sum" keyTimes="0;0.5;1" values="-225 -225;-225 -225;-225 -225" keySplines="0 0 1 1;0 0 0 0" calcMode="spline"/><animateTransform repeatCount="indefinite" dur="3s" begin="0s" xlink:href="#_R_G_L_0_G_L_1_G_N_1_T_0" fill="freeze" attributeName="transform" from="1 1" to="1 1" type="scale" additive="sum" keyTimes="0;0.2444444;0.5;0.7555556;1" values="1 1;1.1500000000000001 1.1500000000000001;1 1;1.1500000000000001 1.1500000000000001;1 1" keySplines="0.333 0 0.667 1;0.333 0 0.667 1;0.333 0 0.667 1;0.333 0 0.667 1" calcMode="spline"/><clipPath id="_R_G_L_0_G_L_0_C_0"><path id="_R_G_L_0_G_L_0_C_0_P_0" fill-rule="nonzero" d="M83.8 9.17 C21.2,13.63 16.16,19.61 35.56,66.83 C5.69,30.46 0.26,35.32 -16.41,113.52 C-10.34,43.43 -15.52,46.69 -65.97,144.53 C-25.01,51.11 -29.31,52.28 -107,155.17 C-36.42,52.06 -38.89,50.67 -131.21,142.45 C-41.72,45.85 -42.09,42.42 -134.91,109.74 C-40.8,34.01 -39.14,29.03 -118.86,61.91 C-33.88,18.02 -30.28,11.99 -83.79,3.83 C-21.2,-0.63 -16.16,-6.61 -35.56,-53.83 C-5.69,-17.46 -0.26,-22.32 16.41,-100.51 C10.34,-30.43 15.52,-33.69 65.97,-131.53 C25.01,-38.11 29.32,-39.28 107,-142.17 C36.42,-39.06 38.89,-37.67 131.21,-129.45 C41.72,-32.85 42.09,-29.42 134.91,-96.73 C40.8,-21.01 39.14,-16.03 118.86,-48.91 C33.88,-5.02 30.28,1.02 83.8,9.17z "/></clipPath><animateTransform repeatCount="indefinite" dur="3s" begin="0s" xlink:href="#_R_G_L_0_G_L_0_G_N_1_T_0" fill="freeze" attributeName="transform" from="1 1" to="1 1" type="scale" additive="sum" keyTimes="0;0.2444444;0.5;0.7555556;1" values="1 1;1.1500000000000001 1.1500000000000001;1 1;1.1500000000000001 1.1500000000000001;1 1" keySplines="0.333 0 0.667 1;0.333 0 0.667 1;0.333 0 0.667 1;0.333 0 0.667 1" calcMode="spline"/><animate attributeType="XML" attributeName="opacity" dur="3s" from="0" to="1" xlink:href="#time_group"/></defs><g id="_R_G"><g id="_R_G_L_3_G" transform=" translate(324.5, 103) scale(0.84, 0.84) translate(-125, -200)"><g id="_R_G_L_3_G_L_0_G" transform=" scale(0.858, 0.95)"><rect id="_R_G_L_3_G_L_0_G_S" fill="#ffffff" width="250" height="400"/></g></g><g id="_R_G_L_2_G_M"><g id="_R_G_L_2_G" transform=" translate(352.457, 344.902) rotate(190) scale(-1.04, 1.04) translate(-225, -225)"><g id="_R_G_L_2_G_L_0_G_M"><g id="_R_G_L_2_G_L_0_G" transform=" translate(226.709, 224.575) scale(0.42, 0.42) translate(-4.069, 1.012)"><path id="_R_G_L_2_G_L_0_G_D_0_P_0" stroke="#ff4646" stroke-linecap="round" stroke-linejoin="round" fill="none" stroke-width="63" stroke-opacity="1" d=" M380.04 -346.5 C348.83,-287.6 278.91,-258.37 212.36,-254.73 C145.81,-251.09 80.16,-268.25 14.46,-279.45 C-51.23,-290.65 -121.24,-295.46 -182.29,-268.71 C-210.75,-256.25 -237.3,-235.85 -249.25,-207.17 C-261.2,-178.5 -254.67,-140.95 -228.93,-123.55 C-193.07,-99.29 -137.08,-120.61 -105.72,-90.76 C-87.48,-73.4 -85.62,-43.3 -96.9,-20.78 C-108.17,1.74 -130.11,17.34 -153.45,26.83 C-227.62,56.97 -317.61,33.24 -387.6,72.13 C-441.82,102.24 -472.29,169.81 -458.98,230.39 C-445.67,290.96 -389.67,339.52 -327.83,344.14 C-296.19,346.5 -261.52,336.54 -243.29,310.58 C-226.78,287.07 -226.37,254.86 -209.03,231.95 C-180.39,194.12 -122.47,199.11 -80,177.93 C-44.09,160.02 -21.16,124.2 -0.56,89.77 C20.04,55.33 41.61,19.04 76.36,-1.04 C111.1,-21.12 163.21,-17.3 182.83,17.71 C199.92,48.23 186.03,85.84 183.88,120.76 C180.39,177.25 212.32,234.41 262.24,261.07 C312.17,287.73 377.43,282.46 422.44,248.14 C448.8,228.04 468.53,197.55 470.12,164.43 C472.29,119.03 441.94,79.54 416.49,41.88 C391.04,4.23 368.57,-43.64 387.21,-85.09 C392.26,-96.33 400.12,-106.29 409.94,-113.72 "/></g></g></g></g><g id="_R_G_L_1_G_M"><g id="_R_G_L_1_G" transform=" translate(352.457, 344.902) rotate(190) scale(-1.04, 1.04) translate(-225, -225)"><g id="_R_G_L_1_G_L_0_G_M"><g id="_R_G_L_1_G_L_0_G" transform=" translate(226.709, 224.575) scale(0.42, 0.42) translate(-4.069, 1.012)"><path id="_R_G_L_1_G_L_0_G_D_0_P_0" stroke="#ff4646" stroke-linecap="round" stroke-linejoin="round" fill="none" stroke-width="63" stroke-opacity="1" d=" M380.04 -346.5 C348.83,-287.6 278.91,-258.37 212.36,-254.73 C145.81,-251.09 80.16,-268.25 14.46,-279.45 C-51.23,-290.65 -121.24,-295.46 -182.29,-268.71 C-210.75,-256.25 -237.3,-235.85 -249.25,-207.17 C-261.2,-178.5 -254.67,-140.95 -228.93,-123.55 C-193.07,-99.29 -137.08,-120.61 -105.72,-90.76 C-87.48,-73.4 -85.62,-43.3 -96.9,-20.78 C-108.17,1.74 -130.11,17.34 -153.45,26.83 C-227.62,56.97 -317.61,33.24 -387.6,72.13 C-441.82,102.24 -472.29,169.81 -458.98,230.39 C-445.67,290.96 -389.67,339.52 -327.83,344.14 C-296.19,346.5 -261.52,336.54 -243.29,310.58 C-226.78,287.07 -226.37,254.86 -209.03,231.95 C-180.39,194.12 -122.47,199.11 -80,177.93 C-44.09,160.02 -21.16,124.2 -0.56,89.77 C20.04,55.33 41.61,19.04 76.36,-1.04 C111.1,-21.12 163.21,-17.3 182.83,17.71 C199.92,48.23 186.03,85.84 183.88,120.76 C180.39,177.25 212.32,234.41 262.24,261.07 C312.17,287.73 377.43,282.46 422.44,248.14 C448.8,228.04 468.53,197.55 470.12,164.43 C472.29,119.03 441.94,79.54 416.49,41.88 C391.04,4.23 368.57,-43.64 387.21,-85.09 C392.26,-96.33 400.12,-106.29 409.94,-113.72 "/></g></g></g></g><g id="_R_G_L_0_G" transform=" translate(387, 241) scale(1.06, 1.06) translate(-225, -225)"><g id="_R_G_L_0_G_L_1_G_N_1_T_0" transform=" translate(225, 225)"><g id="_R_G_L_0_G_L_1_G"><g clip-path="url(#_R_G_L_0_G_L_1_C_0)"><g id="_R_G_L_0_G_L_1_G_G_0_L_6_G" transform=" translate(229, 225) rotate(40) scale(0.16091999999999998, 0.38) translate(0, 0)"><path id="_R_G_L_0_G_L_1_G_G_0_L_6_G_D_0_P_0" fill="#ff001a" fill-opacity="1" fill-rule="nonzero" d=" M519.81 -690.92 C519.81,-690.92 1736.34,1142.35 1736.34,1142.35 C1736.34,1142.35 -531.5,690.52 -531.5,690.52 C-531.5,690.52 -1764.59,-1167.01 -1764.59,-1167.01 C-1764.59,-1167.01 519.81,-690.92 519.81,-690.92z "/></g><g id="_R_G_L_0_G_L_1_G_G_0_L_5_G_N_7_T_0_M"><g id="_R_G_L_0_G_L_1_G_G_0_L_5_G_N_7_T_0" transform=" translate(229, 225) rotate(40) scale(0.16091999999999998, 0.38) translate(0, 0)"><g id="_R_G_L_0_G_L_1_G_G_0_L_5_G" transform=" translate(0, 0)"><path id="_R_G_L_0_G_L_1_G_G_0_L_5_G_D_0_P_0" fill="#ff001a" fill-opacity="1" fill-rule="nonzero" d=" M1806.36 -2214.54 C1806.36,-2214.54 1806.36,2250.54 1806.36,2250.54 C1806.36,2250.54 -1810.36,2250.54 -1810.36,2250.54 C-1810.36,2250.54 -1810.36,-2214.54 -1810.36,-2214.54 C-1810.36,-2214.54 1806.36,-2214.54 1806.36,-2214.54z "/></g></g></g><g id="_R_G_L_0_G_L_1_G_G_0_L_4_G_N_7_T_0_M"><g id="_R_G_L_0_G_L_1_G_G_0_L_4_G_N_7_T_0" transform=" translate(229, 225) rotate(40) scale(0.16091999999999998, 0.38) translate(0, 0)"><g id="_R_G_L_0_G_L_1_G_G_0_L_4_G" transform=" translate(0, 0)"><path id="_R_G_L_0_G_L_1_G_G_0_L_4_G_D_0_P_0" fill="#ff001a" fill-opacity="1" fill-rule="nonzero" d=" M1806.36 -2214.54 C1806.36,-2214.54 1806.36,2250.54 1806.36,2250.54 C1806.36,2250.54 -1810.36,2250.54 -1810.36,2250.54 C-1810.36,2250.54 -1810.36,-2214.54 -1810.36,-2214.54 C-1810.36,-2214.54 1806.36,-2214.54 1806.36,-2214.54z "/></g></g></g><g id="_R_G_L_0_G_L_1_G_G_0_L_3_G_N_7_T_0_M"><g id="_R_G_L_0_G_L_1_G_G_0_L_3_G_N_7_T_0" transform=" translate(229, 225) rotate(40) scale(0.16091999999999998, 0.38) translate(0, 0)"><g id="_R_G_L_0_G_L_1_G_G_0_L_3_G" transform=" translate(0, 0)"><path id="_R_G_L_0_G_L_1_G_G_0_L_3_G_D_0_P_0" fill="#ff001a" fill-opacity="1" fill-rule="nonzero" d=" M1806.36 -2214.54 C1806.36,-2214.54 1806.36,2250.54 1806.36,2250.54 C1806.36,2250.54 -1810.36,2250.54 -1810.36,2250.54 C-1810.36,2250.54 -1810.36,-2214.54 -1810.36,-2214.54 C-1810.36,-2214.54 1806.36,-2214.54 1806.36,-2214.54z "/></g></g></g><g id="_R_G_L_0_G_L_1_G_G_0_L_2_G_N_7_T_0_M"><g id="_R_G_L_0_G_L_1_G_G_0_L_2_G_N_7_T_0" transform=" translate(229, 225) rotate(40) scale(0.16091999999999998, 0.38) translate(0, 0)"><g id="_R_G_L_0_G_L_1_G_G_0_L_2_G" transform=" translate(0, 0)"><path id="_R_G_L_0_G_L_1_G_G_0_L_2_G_D_0_P_0" fill="#ff001a" fill-opacity="1" fill-rule="nonzero" d=" M1806.36 -2214.54 C1806.36,-2214.54 1806.36,2250.54 1806.36,2250.54 C1806.36,2250.54 -1810.36,2250.54 -1810.36,2250.54 C-1810.36,2250.54 -1810.36,-2214.54 -1810.36,-2214.54 C-1810.36,-2214.54 1806.36,-2214.54 1806.36,-2214.54z "/></g></g></g><g id="_R_G_L_0_G_L_1_G_G_0_L_1_G_N_7_T_0_M"><g id="_R_G_L_0_G_L_1_G_G_0_L_1_G_N_7_T_0" transform=" translate(229, 225) rotate(40) scale(0.16091999999999998, 0.38) translate(0, 0)"><g id="_R_G_L_0_G_L_1_G_G_0_L_1_G" transform=" translate(0, 0)"><path id="_R_G_L_0_G_L_1_G_G_0_L_1_G_D_0_P_0" fill="#ff001a" fill-opacity="1" fill-rule="nonzero" d=" M1806.36 -2214.54 C1806.36,-2214.54 1806.36,2250.54 1806.36,2250.54 C1806.36,2250.54 -1810.36,2250.54 -1810.36,2250.54 C-1810.36,2250.54 -1810.36,-2214.54 -1810.36,-2214.54 C-1810.36,-2214.54 1806.36,-2214.54 1806.36,-2214.54z "/></g></g></g><g id="_R_G_L_0_G_L_1_G_G_0_L_0_G_N_7_T_0_M"><g id="_R_G_L_0_G_L_1_G_G_0_L_0_G_N_7_T_0" transform=" translate(229, 225) rotate(40) scale(0.16091999999999998, 0.38) translate(0, 0)"><g id="_R_G_L_0_G_L_1_G_G_0_L_0_G" transform=" translate(0, 0)"><path id="_R_G_L_0_G_L_1_G_G_0_L_0_G_D_0_P_0" fill="#ff001a" fill-opacity="1" fill-rule="nonzero" d=" M1806.36 -2214.54 C1806.36,-2214.54 1806.36,2250.54 1806.36,2250.54 C1806.36,2250.54 -1810.36,2250.54 -1810.36,2250.54 C-1810.36,2250.54 -1810.36,-2214.54 -1810.36,-2214.54 C-1810.36,-2214.54 1806.36,-2214.54 1806.36,-2214.54z "/></g></g></g></g></g></g><g id="_R_G_L_0_G_L_0_G_N_1_T_0" transform=" translate(225, 225)"><g id="_R_G_L_0_G_L_0_G"><g clip-path="url(#_R_G_L_0_G_L_0_C_0)"><path id="_R_G_L_0_G_L_0_G_G_0_D_0_P_0" fill="#2278ae" fill-opacity="1" fill-rule="nonzero" d="  "/><path id="_R_G_L_0_G_L_0_G_G_0_D_1_P_0" stroke="#ebfbff" stroke-linecap="round" stroke-linejoin="round" fill="none" stroke-width="4" stroke-opacity="1" d="  "/></g></g></g></g></g><g id="time_group"/></svg>