<svg xmlns="http://www.w3.org/2000/svg" xmlns:xlink="http://www.w3.org/1999/xlink" preserveAspectRatio="xMidYMid meet" width="480" height="415" viewBox="0 0 480 415" style="width:100%;height:100%"><defs><clipPath id="_R_G_L_3_G_L_1_C_0"><path id="_R_G_L_3_G_L_1_C_0_P_0" fill-rule="nonzero" d="M481.1 962.73 C481.1,967.45 481.1,972.17 481.1,976.89 C485.83,976.89 490.55,976.89 495.27,976.89 C495.27,981.75 495.27,986.61 495.27,991.48 C500,991.48 504.72,991.48 509.44,991.48 C509.44,996.2 509.44,1000.92 509.44,1005.64 C514.31,1005.64 519.18,1005.64 524.04,1005.64 C524.04,1010.5 524.04,1015.36 524.04,1020.23 C533.49,1020.23 542.93,1020.23 552.38,1020.23 C552.38,1024.95 552.38,1029.67 552.38,1034.39 C566.69,1034.39 581.01,1034.39 595.32,1034.39 C595.32,1039.11 595.32,1043.83 595.32,1048.55 C609.63,1048.55 623.94,1048.55 638.25,1048.55 C638.25,1053.41 638.25,1058.27 638.25,1063.14 C657.43,1063.14 676.62,1063.14 695.79,1063.14 C695.79,1067.86 695.79,1072.58 695.79,1077.3 C690.93,1077.3 686.06,1077.3 681.19,1077.3 C681.19,1082.02 681.19,1086.73 681.19,1091.45 C676.47,1091.45 671.75,1091.45 667.02,1091.45 C667.02,1096.32 667.02,1101.18 667.02,1106.04 C662.3,1106.04 657.58,1106.04 652.85,1106.04 C652.85,1115.48 652.85,1124.92 652.85,1134.36 C643.27,1134.36 633.67,1134.36 624.09,1134.36 C624.09,1139.23 624.09,1144.09 624.09,1148.95 C619.36,1148.95 614.64,1148.95 609.92,1148.95 C609.92,1153.67 609.92,1158.39 609.92,1163.11 C605.05,1163.11 600.18,1163.11 595.32,1163.11 C595.32,1167.83 595.32,1172.55 595.32,1177.27 C590.59,1177.27 585.87,1177.27 581.15,1177.27 C581.15,1182.14 581.15,1187 581.15,1191.86 C576.42,1191.86 571.7,1191.86 566.98,1191.86 C566.98,1196.58 566.98,1201.3 566.98,1206.02 C562.11,1206.02 557.25,1206.02 552.38,1206.02 C552.38,1215.6 552.38,1225.19 552.38,1234.77 C547.66,1234.77 542.93,1234.77 538.21,1234.77 C538.21,1239.49 538.21,1244.21 538.21,1248.93 C533.49,1248.93 528.77,1248.93 524.04,1248.93 C524.04,1258.51 524.04,1268.1 524.04,1277.68 C519.18,1277.68 514.31,1277.68 509.44,1277.68 C509.44,1282.4 509.44,1287.12 509.44,1291.84 C504.72,1291.84 500,1291.84 495.27,1291.84 C495.27,1320.44 495.27,1349.05 495.27,1377.66 C500,1377.66 504.72,1377.66 509.44,1377.66 C509.44,1382.38 509.44,1387.1 509.44,1391.82 C542.93,1391.82 576.43,1391.82 609.92,1391.82 C609.92,1387.1 609.92,1382.38 609.92,1377.66 C624.23,1377.66 638.54,1377.66 652.85,1377.66 C652.85,1372.94 652.85,1368.22 652.85,1363.5 C671.89,1363.5 690.93,1363.5 709.96,1363.5 C709.96,1358.64 709.96,1353.77 709.96,1348.91 C719.55,1348.91 729.14,1348.91 738.73,1348.91 C738.73,1344.19 738.73,1339.47 738.73,1334.75 C748.18,1334.75 757.62,1334.75 767.07,1334.75 C767.07,1330.03 767.07,1325.31 767.07,1320.59 C776.65,1320.59 786.25,1320.59 795.84,1320.59 C795.84,1315.73 795.84,1310.86 795.84,1306 C800.56,1306 805.28,1306 810.01,1306 C810.01,1301.28 810.01,1296.56 810.01,1291.84 C814.87,1291.84 819.74,1291.84 824.6,1291.84 C824.6,1287.12 824.6,1282.4 824.6,1277.68 C834.05,1277.68 843.5,1277.68 852.94,1277.68 C852.94,1272.82 852.94,1267.95 852.94,1263.09 C857.81,1263.09 862.67,1263.09 867.54,1263.09 C867.54,1272.67 867.54,1282.26 867.54,1291.84 C862.67,1291.84 857.81,1291.84 852.94,1291.84 C852.94,1301.42 852.94,1311.01 852.94,1320.59 C848.22,1320.59 843.5,1320.59 838.77,1320.59 C838.77,1334.89 838.77,1349.2 838.77,1363.5 C834.05,1363.5 829.33,1363.5 824.6,1363.5 C824.6,1401.68 824.6,1439.88 824.6,1478.06 C853.23,1478.06 881.86,1478.06 910.48,1478.06 C910.48,1473.2 910.48,1468.34 910.48,1463.47 C919.92,1463.47 929.37,1463.47 938.82,1463.47 C938.82,1458.76 938.82,1454.03 938.82,1449.32 C943.68,1449.32 948.55,1449.32 953.42,1449.32 C953.42,1444.45 953.42,1439.59 953.42,1434.73 C958.14,1434.73 962.86,1434.73 967.58,1434.73 C967.58,1430.01 967.58,1425.29 967.58,1420.57 C972.31,1420.57 977.03,1420.57 981.76,1420.57 C981.76,1415.85 981.76,1411.13 981.76,1406.41 C986.62,1406.41 991.49,1406.41 996.35,1406.41 C996.35,1396.82 996.35,1387.24 996.35,1377.66 C1001.08,1377.66 1005.8,1377.66 1010.52,1377.66 C1010.52,1372.94 1010.52,1368.22 1010.52,1363.5 C1015.24,1363.5 1019.97,1363.5 1024.69,1363.5 C1024.69,1353.92 1024.69,1344.33 1024.69,1334.75 C1029.56,1334.75 1034.43,1334.75 1039.29,1334.75 C1039.29,1325.17 1039.29,1315.58 1039.29,1306 C1044.01,1306 1048.74,1306 1053.46,1306 C1053.46,1301.28 1053.46,1296.56 1053.46,1291.84 C1058.18,1291.84 1062.91,1291.84 1067.63,1291.84 C1067.63,1277.54 1067.63,1263.23 1067.63,1248.93 C1072.49,1248.93 1077.36,1248.93 1082.23,1248.93 C1082.23,1234.63 1082.23,1220.32 1082.23,1206.02 C1086.95,1206.02 1091.68,1206.02 1096.4,1206.02 C1096.4,1196.44 1096.4,1186.85 1096.4,1177.27 C1101.12,1177.27 1105.84,1177.27 1110.57,1177.27 C1110.57,1158.25 1110.57,1139.22 1110.57,1120.2 C1115.43,1120.2 1120.3,1120.2 1125.16,1120.2 C1125.16,1091.6 1125.16,1062.99 1125.16,1034.39 C1134.61,1034.39 1144.06,1034.39 1153.5,1034.39 C1153.5,1039.11 1153.5,1043.83 1153.5,1048.55 C1172.68,1048.55 1191.86,1048.55 1211.04,1048.55 C1211.04,1053.41 1211.04,1058.27 1211.04,1063.14 C1234.8,1063.14 1258.56,1063.14 1282.32,1063.14 C1282.32,1067.86 1282.32,1072.58 1282.32,1077.3 C1306.22,1077.3 1330.12,1077.3 1354.02,1077.3 C1354.02,1072.58 1354.02,1067.86 1354.02,1063.14 C1377.92,1063.14 1401.83,1063.14 1425.73,1063.14 C1425.73,1058.27 1425.73,1053.41 1425.73,1048.55 C1430.45,1048.55 1435.18,1048.55 1439.9,1048.55 C1439.9,1043.83 1439.9,1039.11 1439.9,1034.39 C1444.76,1034.39 1449.63,1034.39 1454.5,1034.39 C1454.5,1010.5 1454.5,986.61 1454.5,962.73 C1449.63,962.73 1444.76,962.73 1439.9,962.73 C1439.9,953.15 1439.9,943.56 1439.9,933.98 C1435.18,933.98 1430.45,933.98 1425.73,933.98 C1425.73,929.26 1425.73,924.54 1425.73,919.82 C1416.14,919.82 1406.55,919.82 1396.96,919.82 C1396.96,915.1 1396.96,910.38 1396.96,905.66 C1392.24,905.66 1387.51,905.66 1382.79,905.66 C1382.79,900.8 1382.79,895.93 1382.79,891.07 C1368.48,891.07 1354.16,891.07 1339.85,891.07 C1339.85,886.35 1339.85,881.63 1339.85,876.91 C1334.99,876.91 1330.12,876.91 1325.25,876.91 C1325.25,872.19 1325.25,867.47 1325.25,862.75 C1344.43,862.75 1363.61,862.75 1382.79,862.75 C1382.79,857.89 1382.79,853.03 1382.79,848.16 C1392.24,848.16 1401.68,848.16 1411.13,848.16 C1411.13,843.44 1411.13,838.72 1411.13,834 C1415.99,834 1420.86,834 1425.73,834 C1425.73,829.28 1425.73,824.56 1425.73,819.84 C1435.32,819.84 1444.91,819.84 1454.5,819.84 C1454.5,800.68 1454.5,781.51 1454.5,762.35 C1449.63,762.35 1444.76,762.35 1439.9,762.35 C1439.9,757.63 1439.9,752.91 1439.9,748.19 C1435.18,748.19 1430.45,748.19 1425.73,748.19 C1425.73,743.46 1425.73,738.74 1425.73,734.03 C1420.86,734.03 1415.99,734.03 1411.13,734.03 C1411.13,729.16 1411.13,724.3 1411.13,719.44 C1396.82,719.44 1382.5,719.44 1368.19,719.44 C1368.19,714.72 1368.19,710 1368.19,705.28 C1330.12,705.28 1292.05,705.28 1253.98,705.28 C1253.98,710 1253.98,714.72 1253.98,719.44 C1234.8,719.44 1215.62,719.44 1196.44,719.44 C1196.44,724.3 1196.44,729.16 1196.44,734.03 C1187,734.03 1177.55,734.03 1168.1,734.03 C1168.1,738.74 1168.1,743.46 1168.1,748.19 C1158.51,748.19 1148.92,748.19 1139.34,748.19 C1139.34,752.91 1139.34,757.63 1139.34,762.35 C1125.02,762.35 1110.71,762.35 1096.4,762.35 C1096.4,767.21 1096.4,772.07 1096.4,776.93 C1091.68,776.93 1086.95,776.93 1082.23,776.93 C1082.23,781.65 1082.23,786.38 1082.23,791.09 C1077.36,791.09 1072.49,791.09 1067.63,791.09 C1067.63,786.38 1067.63,781.65 1067.63,776.93 C1072.49,776.93 1077.36,776.93 1082.23,776.93 C1082.23,767.35 1082.23,757.77 1082.23,748.19 C1086.95,748.19 1091.68,748.19 1096.4,748.19 C1096.4,733.88 1096.4,719.58 1096.4,705.28 C1101.12,705.28 1105.84,705.28 1110.57,705.28 C1110.57,690.97 1110.57,676.67 1110.57,662.37 C1115.43,662.37 1120.3,662.37 1125.16,662.37 C1125.16,657.65 1125.16,652.93 1125.16,648.21 C1129.89,648.21 1134.61,648.21 1139.34,648.21 C1139.34,629.04 1139.34,609.87 1139.34,590.71 C1144.06,590.71 1148.78,590.71 1153.5,590.71 C1153.5,566.97 1153.5,543.22 1153.5,519.48 C1158.37,519.48 1163.24,519.48 1168.1,519.48 C1168.1,490.88 1168.1,462.27 1168.1,433.66 C1163.24,433.66 1158.37,433.66 1153.5,433.66 C1153.5,428.8 1153.5,423.94 1153.5,419.07 C1134.47,419.07 1115.43,419.07 1096.4,419.07 C1096.4,423.94 1096.4,428.8 1096.4,433.66 C1091.68,433.66 1086.95,433.66 1082.23,433.66 C1082.23,438.38 1082.23,443.1 1082.23,447.82 C1077.36,447.82 1072.49,447.82 1067.63,447.82 C1067.63,452.54 1067.63,457.27 1067.63,461.98 C1062.91,461.98 1058.18,461.98 1053.46,461.98 C1053.46,471.57 1053.46,481.15 1053.46,490.73 C1048.74,490.73 1044.01,490.73 1039.29,490.73 C1039.29,495.45 1039.29,500.17 1039.29,504.89 C1034.42,504.89 1029.56,504.89 1024.69,504.89 C1024.69,519.19 1024.69,533.5 1024.69,547.8 C1019.97,547.8 1015.24,547.8 1010.52,547.8 C1010.52,557.38 1010.52,566.97 1010.52,576.55 C1005.8,576.55 1001.08,576.55 996.35,576.55 C996.35,590.85 996.35,605.16 996.35,619.46 C991.49,619.46 986.62,619.46 981.76,619.46 C981.76,638.48 981.76,657.51 981.76,676.53 C977.03,676.53 972.31,676.53 967.58,676.53 C967.58,695.69 967.58,714.86 967.58,734.03 C962.86,734.03 958.14,734.03 953.42,734.03 C953.42,724.44 953.42,714.86 953.42,705.28 C948.55,705.28 943.68,705.28 938.82,705.28 C938.82,700.56 938.82,695.84 938.82,691.12 C934.09,691.12 929.37,691.12 924.65,691.12 C924.65,686.25 924.65,681.39 924.65,676.53 C919.93,676.53 915.2,676.53 910.48,676.53 C910.48,662.23 910.48,647.92 910.48,633.62 C905.61,633.62 900.75,633.62 895.88,633.62 C895.88,628.9 895.88,624.18 895.88,619.46 C891.16,619.46 886.43,619.46 881.71,619.46 C881.71,614.74 881.71,610.02 881.71,605.3 C872.12,605.3 862.53,605.3 852.94,605.3 C852.94,600.44 852.94,595.57 852.94,590.71 C843.5,590.71 834.05,590.71 824.6,590.71 C824.6,585.99 824.6,581.27 824.6,576.55 C810.29,576.55 795.98,576.55 781.67,576.55 C781.67,571.83 781.67,567.11 781.67,562.39 C757.77,562.39 733.86,562.39 709.96,562.39 C709.96,567.11 709.96,571.83 709.96,576.55 C705.24,576.55 700.51,576.55 695.79,576.55 C695.79,619.45 695.79,662.37 695.79,705.28 C700.51,705.28 705.24,705.28 709.96,705.28 C709.96,719.58 709.96,733.88 709.96,748.19 C714.68,748.19 719.41,748.19 724.13,748.19 C724.13,752.91 724.13,757.63 724.13,762.35 C729,762.35 733.86,762.35 738.73,762.35 C738.73,767.21 738.73,772.07 738.73,776.93 C743.45,776.93 748.18,776.93 752.9,776.93 C752.9,786.37 752.9,795.82 752.9,805.25 C757.62,805.25 762.35,805.25 767.07,805.25 C767.07,810.12 767.07,814.98 767.07,819.84 C771.93,819.84 776.8,819.84 781.67,819.84 C781.67,829.28 781.67,838.72 781.67,848.16 C786.39,848.16 791.11,848.16 795.84,848.16 C795.84,853.03 795.84,857.89 795.84,862.75 C786.25,862.75 776.65,862.75 767.07,862.75 C767.07,857.89 767.07,853.03 767.07,848.16 C752.76,848.16 738.44,848.16 724.13,848.16 C724.13,843.44 724.13,838.72 724.13,834 C714.69,834 705.24,834 695.79,834 C695.79,829.28 695.79,824.56 695.79,819.84 C633.68,819.84 571.56,819.84 509.44,819.84 C509.44,824.56 509.44,829.28 509.44,834 C500,834 490.55,834 481.1,834 C481.1,843.58 481.1,853.17 481.1,862.75 C476.24,862.75 471.37,862.75 466.5,862.75 C466.5,896.07 466.5,929.41 466.5,962.73 C471.37,962.73 476.24,962.73 481.1,962.73z "/></clipPath><animate repeatCount="indefinite" dur="3s" begin="0s" xlink:href="#_R_G_L_3_G_L_1_G_N_1_T_0_M" fill="freeze" attributeName="opacity" from="0" to="1" keyTimes="0;0.7277778;0.7277778;0.7277783;1" values="0;0;0;1;1" keySplines="0 0 0 0;0 0 0 0;0 0 0 0;0 0 0 0" calcMode="spline"/><animate repeatCount="indefinite" dur="3s" begin="0s" xlink:href="#_R_G_L_3_G_L_0_G_N_1_T_0_M" fill="freeze" attributeName="opacity" from="0" to="1" keyTimes="0;0.7277778;0.7277778;0.7277783;1" values="0;0;0;1;1" keySplines="0 0 0 0;0 0 0 0;0 0 0 0;0 0 0 0" calcMode="spline"/><animate repeatCount="indefinite" dur="3s" begin="0s" xlink:href="#_R_G_L_3_G_N_3_T_0_M" fill="freeze" attributeName="opacity" from="0" to="1" keyTimes="0;0.7277778;0.7277783;1" values="0;0;1;1" keySplines="0 0 0 0;0 0 0 0;0 0 0 0" calcMode="spline"/><clipPath id="_R_G_L_2_G_L_1_C_0"><path id="_R_G_L_2_G_L_1_C_0_P_0" fill-rule="nonzero" d="M481.1 962.73 C481.1,967.45 481.1,972.17 481.1,976.89 C485.83,976.89 490.55,976.89 495.27,976.89 C495.27,981.75 495.27,986.61 495.27,991.48 C500,991.48 504.72,991.48 509.44,991.48 C509.44,996.2 509.44,1000.92 509.44,1005.64 C514.31,1005.64 519.18,1005.64 524.04,1005.64 C524.04,1010.5 524.04,1015.36 524.04,1020.23 C533.49,1020.23 542.93,1020.23 552.38,1020.23 C552.38,1024.95 552.38,1029.67 552.38,1034.39 C566.69,1034.39 581.01,1034.39 595.32,1034.39 C595.32,1039.11 595.32,1043.83 595.32,1048.55 C609.63,1048.55 623.94,1048.55 638.25,1048.55 C638.25,1053.41 638.25,1058.27 638.25,1063.14 C657.43,1063.14 676.62,1063.14 695.79,1063.14 C695.79,1067.86 695.79,1072.58 695.79,1077.3 C690.93,1077.3 686.06,1077.3 681.19,1077.3 C681.19,1082.02 681.19,1086.73 681.19,1091.45 C676.47,1091.45 671.75,1091.45 667.02,1091.45 C667.02,1096.32 667.02,1101.18 667.02,1106.04 C662.3,1106.04 657.58,1106.04 652.85,1106.04 C652.85,1115.48 652.85,1124.92 652.85,1134.36 C643.27,1134.36 633.67,1134.36 624.09,1134.36 C624.09,1139.23 624.09,1144.09 624.09,1148.95 C619.36,1148.95 614.64,1148.95 609.92,1148.95 C609.92,1153.67 609.92,1158.39 609.92,1163.11 C605.05,1163.11 600.18,1163.11 595.32,1163.11 C595.32,1167.83 595.32,1172.55 595.32,1177.27 C590.59,1177.27 585.87,1177.27 581.15,1177.27 C581.15,1182.14 581.15,1187 581.15,1191.86 C576.42,1191.86 571.7,1191.86 566.98,1191.86 C566.98,1196.58 566.98,1201.3 566.98,1206.02 C562.11,1206.02 557.25,1206.02 552.38,1206.02 C552.38,1215.6 552.38,1225.19 552.38,1234.77 C547.66,1234.77 542.93,1234.77 538.21,1234.77 C538.21,1239.49 538.21,1244.21 538.21,1248.93 C533.49,1248.93 528.77,1248.93 524.04,1248.93 C524.04,1258.51 524.04,1268.1 524.04,1277.68 C519.18,1277.68 514.31,1277.68 509.44,1277.68 C509.44,1282.4 509.44,1287.12 509.44,1291.84 C504.72,1291.84 500,1291.84 495.27,1291.84 C495.27,1320.44 495.27,1349.05 495.27,1377.66 C500,1377.66 504.72,1377.66 509.44,1377.66 C509.44,1382.38 509.44,1387.1 509.44,1391.82 C542.93,1391.82 576.43,1391.82 609.92,1391.82 C609.92,1387.1 609.92,1382.38 609.92,1377.66 C624.23,1377.66 638.54,1377.66 652.85,1377.66 C652.85,1372.94 652.85,1368.22 652.85,1363.5 C671.89,1363.5 690.93,1363.5 709.96,1363.5 C709.96,1358.64 709.96,1353.77 709.96,1348.91 C719.55,1348.91 729.14,1348.91 738.73,1348.91 C738.73,1344.19 738.73,1339.47 738.73,1334.75 C748.18,1334.75 757.62,1334.75 767.07,1334.75 C767.07,1330.03 767.07,1325.31 767.07,1320.59 C776.65,1320.59 786.25,1320.59 795.84,1320.59 C795.84,1315.73 795.84,1310.86 795.84,1306 C800.56,1306 805.28,1306 810.01,1306 C810.01,1301.28 810.01,1296.56 810.01,1291.84 C814.87,1291.84 819.74,1291.84 824.6,1291.84 C824.6,1287.12 824.6,1282.4 824.6,1277.68 C834.05,1277.68 843.5,1277.68 852.94,1277.68 C852.94,1272.82 852.94,1267.95 852.94,1263.09 C857.81,1263.09 862.67,1263.09 867.54,1263.09 C867.54,1272.67 867.54,1282.26 867.54,1291.84 C862.67,1291.84 857.81,1291.84 852.94,1291.84 C852.94,1301.42 852.94,1311.01 852.94,1320.59 C848.22,1320.59 843.5,1320.59 838.77,1320.59 C838.77,1334.89 838.77,1349.2 838.77,1363.5 C834.05,1363.5 829.33,1363.5 824.6,1363.5 C824.6,1401.68 824.6,1439.88 824.6,1478.06 C853.23,1478.06 881.86,1478.06 910.48,1478.06 C910.48,1473.2 910.48,1468.34 910.48,1463.47 C919.92,1463.47 929.37,1463.47 938.82,1463.47 C938.82,1458.76 938.82,1454.03 938.82,1449.32 C943.68,1449.32 948.55,1449.32 953.42,1449.32 C953.42,1444.45 953.42,1439.59 953.42,1434.73 C958.14,1434.73 962.86,1434.73 967.58,1434.73 C967.58,1430.01 967.58,1425.29 967.58,1420.57 C972.31,1420.57 977.03,1420.57 981.76,1420.57 C981.76,1415.85 981.76,1411.13 981.76,1406.41 C986.62,1406.41 991.49,1406.41 996.35,1406.41 C996.35,1396.82 996.35,1387.24 996.35,1377.66 C1001.08,1377.66 1005.8,1377.66 1010.52,1377.66 C1010.52,1372.94 1010.52,1368.22 1010.52,1363.5 C1015.24,1363.5 1019.97,1363.5 1024.69,1363.5 C1024.69,1353.92 1024.69,1344.33 1024.69,1334.75 C1029.56,1334.75 1034.43,1334.75 1039.29,1334.75 C1039.29,1325.17 1039.29,1315.58 1039.29,1306 C1044.01,1306 1048.74,1306 1053.46,1306 C1053.46,1301.28 1053.46,1296.56 1053.46,1291.84 C1058.18,1291.84 1062.91,1291.84 1067.63,1291.84 C1067.63,1277.54 1067.63,1263.23 1067.63,1248.93 C1072.49,1248.93 1077.36,1248.93 1082.23,1248.93 C1082.23,1234.63 1082.23,1220.32 1082.23,1206.02 C1086.95,1206.02 1091.68,1206.02 1096.4,1206.02 C1096.4,1196.44 1096.4,1186.85 1096.4,1177.27 C1101.12,1177.27 1105.84,1177.27 1110.57,1177.27 C1110.57,1158.25 1110.57,1139.22 1110.57,1120.2 C1115.43,1120.2 1120.3,1120.2 1125.16,1120.2 C1125.16,1091.6 1125.16,1062.99 1125.16,1034.39 C1134.61,1034.39 1144.06,1034.39 1153.5,1034.39 C1153.5,1039.11 1153.5,1043.83 1153.5,1048.55 C1172.68,1048.55 1191.86,1048.55 1211.04,1048.55 C1211.04,1053.41 1211.04,1058.27 1211.04,1063.14 C1234.8,1063.14 1258.56,1063.14 1282.32,1063.14 C1282.32,1067.86 1282.32,1072.58 1282.32,1077.3 C1306.22,1077.3 1330.12,1077.3 1354.02,1077.3 C1354.02,1072.58 1354.02,1067.86 1354.02,1063.14 C1377.92,1063.14 1401.83,1063.14 1425.73,1063.14 C1425.73,1058.27 1425.73,1053.41 1425.73,1048.55 C1430.45,1048.55 1435.18,1048.55 1439.9,1048.55 C1439.9,1043.83 1439.9,1039.11 1439.9,1034.39 C1444.76,1034.39 1449.63,1034.39 1454.5,1034.39 C1454.5,1010.5 1454.5,986.61 1454.5,962.73 C1449.63,962.73 1444.76,962.73 1439.9,962.73 C1439.9,953.15 1439.9,943.56 1439.9,933.98 C1435.18,933.98 1430.45,933.98 1425.73,933.98 C1425.73,929.26 1425.73,924.54 1425.73,919.82 C1416.14,919.82 1406.55,919.82 1396.96,919.82 C1396.96,915.1 1396.96,910.38 1396.96,905.66 C1392.24,905.66 1387.51,905.66 1382.79,905.66 C1382.79,900.8 1382.79,895.93 1382.79,891.07 C1368.48,891.07 1354.16,891.07 1339.85,891.07 C1339.85,886.35 1339.85,881.63 1339.85,876.91 C1334.99,876.91 1330.12,876.91 1325.25,876.91 C1325.25,872.19 1325.25,867.47 1325.25,862.75 C1344.43,862.75 1363.61,862.75 1382.79,862.75 C1382.79,857.89 1382.79,853.03 1382.79,848.16 C1392.24,848.16 1401.68,848.16 1411.13,848.16 C1411.13,843.44 1411.13,838.72 1411.13,834 C1415.99,834 1420.86,834 1425.73,834 C1425.73,829.28 1425.73,824.56 1425.73,819.84 C1435.32,819.84 1444.91,819.84 1454.5,819.84 C1454.5,800.68 1454.5,781.51 1454.5,762.35 C1449.63,762.35 1444.76,762.35 1439.9,762.35 C1439.9,757.63 1439.9,752.91 1439.9,748.19 C1435.18,748.19 1430.45,748.19 1425.73,748.19 C1425.73,743.46 1425.73,738.74 1425.73,734.03 C1420.86,734.03 1415.99,734.03 1411.13,734.03 C1411.13,729.16 1411.13,724.3 1411.13,719.44 C1396.82,719.44 1382.5,719.44 1368.19,719.44 C1368.19,714.72 1368.19,710 1368.19,705.28 C1330.12,705.28 1292.05,705.28 1253.98,705.28 C1253.98,710 1253.98,714.72 1253.98,719.44 C1234.8,719.44 1215.62,719.44 1196.44,719.44 C1196.44,724.3 1196.44,729.16 1196.44,734.03 C1187,734.03 1177.55,734.03 1168.1,734.03 C1168.1,738.74 1168.1,743.46 1168.1,748.19 C1158.51,748.19 1148.92,748.19 1139.34,748.19 C1139.34,752.91 1139.34,757.63 1139.34,762.35 C1125.02,762.35 1110.71,762.35 1096.4,762.35 C1096.4,767.21 1096.4,772.07 1096.4,776.93 C1091.68,776.93 1086.95,776.93 1082.23,776.93 C1082.23,781.65 1082.23,786.38 1082.23,791.09 C1077.36,791.09 1072.49,791.09 1067.63,791.09 C1067.63,786.38 1067.63,781.65 1067.63,776.93 C1072.49,776.93 1077.36,776.93 1082.23,776.93 C1082.23,767.35 1082.23,757.77 1082.23,748.19 C1086.95,748.19 1091.68,748.19 1096.4,748.19 C1096.4,733.88 1096.4,719.58 1096.4,705.28 C1101.12,705.28 1105.84,705.28 1110.57,705.28 C1110.57,690.97 1110.57,676.67 1110.57,662.37 C1115.43,662.37 1120.3,662.37 1125.16,662.37 C1125.16,657.65 1125.16,652.93 1125.16,648.21 C1129.89,648.21 1134.61,648.21 1139.34,648.21 C1139.34,629.04 1139.34,609.87 1139.34,590.71 C1144.06,590.71 1148.78,590.71 1153.5,590.71 C1153.5,566.97 1153.5,543.22 1153.5,519.48 C1158.37,519.48 1163.24,519.48 1168.1,519.48 C1168.1,490.88 1168.1,462.27 1168.1,433.66 C1163.24,433.66 1158.37,433.66 1153.5,433.66 C1153.5,428.8 1153.5,423.94 1153.5,419.07 C1134.47,419.07 1115.43,419.07 1096.4,419.07 C1096.4,423.94 1096.4,428.8 1096.4,433.66 C1091.68,433.66 1086.95,433.66 1082.23,433.66 C1082.23,438.38 1082.23,443.1 1082.23,447.82 C1077.36,447.82 1072.49,447.82 1067.63,447.82 C1067.63,452.54 1067.63,457.27 1067.63,461.98 C1062.91,461.98 1058.18,461.98 1053.46,461.98 C1053.46,471.57 1053.46,481.15 1053.46,490.73 C1048.74,490.73 1044.01,490.73 1039.29,490.73 C1039.29,495.45 1039.29,500.17 1039.29,504.89 C1034.42,504.89 1029.56,504.89 1024.69,504.89 C1024.69,519.19 1024.69,533.5 1024.69,547.8 C1019.97,547.8 1015.24,547.8 1010.52,547.8 C1010.52,557.38 1010.52,566.97 1010.52,576.55 C1005.8,576.55 1001.08,576.55 996.35,576.55 C996.35,590.85 996.35,605.16 996.35,619.46 C991.49,619.46 986.62,619.46 981.76,619.46 C981.76,638.48 981.76,657.51 981.76,676.53 C977.03,676.53 972.31,676.53 967.58,676.53 C967.58,695.69 967.58,714.86 967.58,734.03 C962.86,734.03 958.14,734.03 953.42,734.03 C953.42,724.44 953.42,714.86 953.42,705.28 C948.55,705.28 943.68,705.28 938.82,705.28 C938.82,700.56 938.82,695.84 938.82,691.12 C934.09,691.12 929.37,691.12 924.65,691.12 C924.65,686.25 924.65,681.39 924.65,676.53 C919.93,676.53 915.2,676.53 910.48,676.53 C910.48,662.23 910.48,647.92 910.48,633.62 C905.61,633.62 900.75,633.62 895.88,633.62 C895.88,628.9 895.88,624.18 895.88,619.46 C891.16,619.46 886.43,619.46 881.71,619.46 C881.71,614.74 881.71,610.02 881.71,605.3 C872.12,605.3 862.53,605.3 852.94,605.3 C852.94,600.44 852.94,595.57 852.94,590.71 C843.5,590.71 834.05,590.71 824.6,590.71 C824.6,585.99 824.6,581.27 824.6,576.55 C810.29,576.55 795.98,576.55 781.67,576.55 C781.67,571.83 781.67,567.11 781.67,562.39 C757.77,562.39 733.86,562.39 709.96,562.39 C709.96,567.11 709.96,571.83 709.96,576.55 C705.24,576.55 700.51,576.55 695.79,576.55 C695.79,619.45 695.79,662.37 695.79,705.28 C700.51,705.28 705.24,705.28 709.96,705.28 C709.96,719.58 709.96,733.88 709.96,748.19 C714.68,748.19 719.41,748.19 724.13,748.19 C724.13,752.91 724.13,757.63 724.13,762.35 C729,762.35 733.86,762.35 738.73,762.35 C738.73,767.21 738.73,772.07 738.73,776.93 C743.45,776.93 748.18,776.93 752.9,776.93 C752.9,786.37 752.9,795.82 752.9,805.25 C757.62,805.25 762.35,805.25 767.07,805.25 C767.07,810.12 767.07,814.98 767.07,819.84 C771.93,819.84 776.8,819.84 781.67,819.84 C781.67,829.28 781.67,838.72 781.67,848.16 C786.39,848.16 791.11,848.16 795.84,848.16 C795.84,853.03 795.84,857.89 795.84,862.75 C786.25,862.75 776.65,862.75 767.07,862.75 C767.07,857.89 767.07,853.03 767.07,848.16 C752.76,848.16 738.44,848.16 724.13,848.16 C724.13,843.44 724.13,838.72 724.13,834 C714.69,834 705.24,834 695.79,834 C695.79,829.28 695.79,824.56 695.79,819.84 C633.68,819.84 571.56,819.84 509.44,819.84 C509.44,824.56 509.44,829.28 509.44,834 C500,834 490.55,834 481.1,834 C481.1,843.58 481.1,853.17 481.1,862.75 C476.24,862.75 471.37,862.75 466.5,862.75 C466.5,896.07 466.5,929.41 466.5,962.73 C471.37,962.73 476.24,962.73 481.1,962.73z "/></clipPath><animate repeatCount="indefinite" dur="3s" begin="0s" xlink:href="#_R_G_L_2_G_L_1_G_N_1_T_0_M" fill="freeze" attributeName="opacity" from="1" to="0" keyTimes="0;0.7277778;0.7277778;1" values="1;1;0;0" keySplines="0 0 0 0;0 0 0 0;0 0 0 0" calcMode="spline"/><animate repeatCount="indefinite" dur="3s" begin="0s" xlink:href="#_R_G_L_2_G_L_0_G_N_1_T_0_M" fill="freeze" attributeName="opacity" from="1" to="0" keyTimes="0;0.7277778;0.7277778;1" values="1;1;0;0" keySplines="0 0 0 0;0 0 0 0;0 0 0 0" calcMode="spline"/><animate repeatCount="indefinite" dur="3s" begin="0s" xlink:href="#_R_G_L_2_G_M" fill="freeze" attributeName="opacity" from="1" to="0" keyTimes="0;0.7277778;0.7277778;1" values="1;1;0;0" keySplines="0 0 0 0;0 0 0 0;0 0 0 0" calcMode="spline"/><animate repeatCount="indefinite" dur="3s" begin="0s" xlink:href="#_R_G_L_1_G_L_0_G_M" fill="freeze" attributeName="opacity" from="0" to="1" keyTimes="0;0.4444444;0.4444444;0.444445;1" values="0;0;0;1;1" keySplines="0 0 0 0;0 0 0 0;0 0 0 0;0 0 0 0" calcMode="spline"/><animate repeatCount="indefinite" dur="3s" begin="0s" xlink:href="#_R_G_L_1_G_M" fill="freeze" attributeName="opacity" from="0" to="1" keyTimes="0;0.4444444;0.444445;1" values="0;0;1;1" keySplines="0 0 0 0;0 0 0 0;0 0 0 0" calcMode="spline"/><animate repeatCount="indefinite" dur="3s" begin="0s" xlink:href="#_R_G_L_0_G_L_0_G_M" fill="freeze" attributeName="opacity" from="1" to="0" keyTimes="0;0.4444444;0.4444445;1" values="1;1;0;0" keySplines="0 0 0 0;0 0 0 0;0 0 0 0" calcMode="spline"/><animate repeatCount="indefinite" dur="3s" begin="0s" xlink:href="#_R_G_L_0_G_M" fill="freeze" attributeName="opacity" from="1" to="0" keyTimes="0;0.4444444;0.4444445;1" values="1;1;0;0" keySplines="0 0 0 0;0 0 0 0;0 0 0 0" calcMode="spline"/><animate attributeType="XML" attributeName="opacity" dur="3s" from="0" to="1" xlink:href="#time_group"/></defs><g id="_R_G"><g id="_R_G_L_3_G_N_3_T_0_M"><g id="_R_G_L_3_G_N_3_T_0" transform=" translate(140.25, 278.5) scale(1.14, 1.14) translate(-225, -225)"><g id="_R_G_L_3_G"><g id="_R_G_L_3_G_L_1_G_N_1_T_0_M"><g id="_R_G_L_3_G_L_1_G_N_1_T_0" transform=" translate(225, 225) scale(0.25, 0.25) translate(0, 0)"><g id="_R_G_L_3_G_L_1_G" transform=" translate(0, 0) translate(-960, -960)"><g clip-path="url(#_R_G_L_3_G_L_1_C_0)"><rect id="_R_G_L_3_G_L_1_G_G_0_S" fill="#5ff550" width="1920" height="1920"/></g></g></g></g><g id="_R_G_L_3_G_L_0_G_N_1_T_0_M"><g id="_R_G_L_3_G_L_0_G_N_1_T_0" transform=" translate(225, 225) scale(0.25, 0.25) translate(0, 0)"><g id="_R_G_L_3_G_L_0_G"><path id="_R_G_L_3_G_L_0_G_D_0_P_0" stroke="#ffffff" stroke-linecap="round" stroke-linejoin="round" fill="none" stroke-width="41" stroke-opacity="1" d=" M170 -528 C170,-528 136,-514 136,-514 C136,-514 102,-460 102,-460 C102,-460 66,-398 66,-398 C66,-398 26,-276 26,-276 C26,-276 26,-230 26,-230 C26,-230 23.5,-189.5 23.5,-189.5 C23.5,-189.5 21.19,-155.55 21.19,-155.55 C21.19,-155.55 7.5,-94.5 7.5,-94.5 C7.5,-94.5 -2,-190 -2,-190 C-2,-190 -32,-258 -32,-258 C-32,-258 -80,-336 -80,-336 C-80,-336 -214,-390 -214,-390 C-214,-390 -242,-384 -242,-384 C-242,-384 -250,-352 -250,-352 C-250,-352 -248,-278 -248,-278 C-248,-278 -226,-230 -226,-230 C-226,-230 -178,-166 -178,-166 C-178,-166 -148,-108 -148,-108 C-148,-108 -76,-26 -76,-26 C-76,-26 -148,-64 -148,-64 C-148,-64 -202,-87 -202,-87 C-202,-87 -276,-122 -276,-122 C-276,-122 -354,-126 -354,-126 C-354,-126 -434,-122 -434,-122 C-434,-122 -476,-86 -476,-86 C-476,-86 -478,-28 -478,-28 C-478,-28 -444,20 -444,20 C-444,20 -402,58 -402,58 C-402,58 -320,82 -320,82 C-320,82 -258,80 -258,80 C-258,80 -176,78 -176,78 C-176,78 -76,52 -76,52 C-76,52 -177,81 -177,81 C-177,81 -264,135 -264,135 C-264,135 -314,186 -314,186 C-314,186 -366,228 -366,228 C-366,228 -416,302 -416,302 C-416,302 -444,344 -444,344 C-444,344 -444,404 -444,404 C-444,404 -382,418 -382,418 C-382,418 -270,384 -270,384 C-270,384 -188,340 -188,340 C-188,340 -96,280 -96,280 C-96,280 -22,218 -22,218 C-22,218 44,100 44,100 C44,100 -50,260 -50,260 C-50,260 -76,316 -76,316 C-76,316 -104,374 -104,374 C-104,374 -118,424 -118,424 C-118,424 -122,502 -122,502 C-122,502 -62,500 -62,500 C-62,500 4,448 4,448 C4,448 66,350 66,350 C66,350 114,244 114,244 C114,244 144,138 144,138 C144,138 156,76 156,76 C156,76 150,32 150,32 C150,32 124,-10 124,-10 C124,-10 178,58 178,58 C178,58 242,82 242,82 C242,82 314,92 314,92 C314,92 376,94 376,94 C376,94 468,66 468,66 C468,66 480,22 480,22 C480,22 440,-34 440,-34 C440,-34 358,-66 358,-66 C358,-66 306,-78 306,-78 C306,-78 214,-74 214,-74 C214,-74 130,-54 130,-54 C130,-54 346,-98 346,-98 C346,-98 440,-132 440,-132 C440,-132 482,-158 482,-158 C482,-158 470,-206 470,-206 C470,-206 400,-242 400,-242 C400,-242 316,-240 316,-240 C316,-240 228,-206 228,-206 C228,-206 138,-174 138,-174 C138,-174 74,-126 74,-126 C74,-126 50,-79 50,-79 C50,-79 104,-198 104,-198 C104,-198 150,-310 150,-310 C150,-310 170,-360 170,-360 C170,-360 188,-430 188,-430 C188,-430 192,-496 192,-496 C192,-496 170,-528 170,-528z "/></g></g></g></g></g></g><g id="_R_G_L_2_G_M"><g id="_R_G_L_2_G" transform=" translate(140.25, 278.5) scale(1.14, 1.14) translate(-225, -225)"><g id="_R_G_L_2_G_L_1_G_N_1_T_0_M"><g id="_R_G_L_2_G_L_1_G_N_1_T_0" transform=" translate(225, 225) scale(0.25, 0.25) translate(0, 0)"><g id="_R_G_L_2_G_L_1_G" transform=" translate(0, 0) translate(-960, -960)"><g clip-path="url(#_R_G_L_2_G_L_1_C_0)"><rect id="_R_G_L_2_G_L_1_G_G_0_S" fill="#5ff550" width="1920" height="1920"/></g></g></g></g><g id="_R_G_L_2_G_L_0_G_N_1_T_0_M"><g id="_R_G_L_2_G_L_0_G_N_1_T_0" transform=" translate(225, 225) scale(0.25, 0.25) translate(0, 0)"><g id="_R_G_L_2_G_L_0_G"><path id="_R_G_L_2_G_L_0_G_D_0_P_0" stroke="#ffffff" stroke-linecap="round" stroke-linejoin="round" fill="none" stroke-width="41" stroke-opacity="1" d=" M170 -528 C170,-528 136,-514 136,-514 C136,-514 102,-460 102,-460 C102,-460 66,-398 66,-398 C66,-398 26,-276 26,-276 C26,-276 26,-230 26,-230 C26,-230 23.5,-189.5 23.5,-189.5 C23.5,-189.5 21.19,-155.55 21.19,-155.55 C21.19,-155.55 7.5,-94.5 7.5,-94.5 C7.5,-94.5 -2,-190 -2,-190 C-2,-190 -32,-258 -32,-258 C-32,-258 -80,-336 -80,-336 C-80,-336 -214,-390 -214,-390 C-214,-390 -242,-384 -242,-384 C-242,-384 -250,-352 -250,-352 C-250,-352 -248,-278 -248,-278 C-248,-278 -226,-230 -226,-230 C-226,-230 -178,-166 -178,-166 C-178,-166 -148,-108 -148,-108 C-148,-108 -76,-26 -76,-26 C-76,-26 -148,-64 -148,-64 C-148,-64 -202,-87 -202,-87 C-202,-87 -276,-122 -276,-122 C-276,-122 -354,-126 -354,-126 C-354,-126 -434,-122 -434,-122 C-434,-122 -476,-86 -476,-86 C-476,-86 -478,-28 -478,-28 C-478,-28 -444,20 -444,20 C-444,20 -402,58 -402,58 C-402,58 -320,82 -320,82 C-320,82 -258,80 -258,80 C-258,80 -176,78 -176,78 C-176,78 -76,52 -76,52 C-76,52 -177,81 -177,81 C-177,81 -264,135 -264,135 C-264,135 -314,186 -314,186 C-314,186 -366,228 -366,228 C-366,228 -416,302 -416,302 C-416,302 -444,344 -444,344 C-444,344 -444,404 -444,404 C-444,404 -382,418 -382,418 C-382,418 -270,384 -270,384 C-270,384 -188,340 -188,340 C-188,340 -96,280 -96,280 C-96,280 -22,218 -22,218 C-22,218 44,100 44,100 C44,100 -50,260 -50,260 C-50,260 -76,316 -76,316 C-76,316 -104,374 -104,374 C-104,374 -118,424 -118,424 C-118,424 -122,502 -122,502 C-122,502 -62,500 -62,500 C-62,500 4,448 4,448 C4,448 66,350 66,350 C66,350 114,244 114,244 C114,244 144,138 144,138 C144,138 156,76 156,76 C156,76 150,32 150,32 C150,32 124,-10 124,-10 C124,-10 178,58 178,58 C178,58 242,82 242,82 C242,82 314,92 314,92 C314,92 376,94 376,94 C376,94 468,66 468,66 C468,66 480,22 480,22 C480,22 440,-34 440,-34 C440,-34 358,-66 358,-66 C358,-66 306,-78 306,-78 C306,-78 214,-74 214,-74 C214,-74 130,-54 130,-54 C130,-54 346,-98 346,-98 C346,-98 440,-132 440,-132 C440,-132 482,-158 482,-158 C482,-158 470,-206 470,-206 C470,-206 400,-242 400,-242 C400,-242 316,-240 316,-240 C316,-240 228,-206 228,-206 C228,-206 138,-174 138,-174 C138,-174 74,-126 74,-126 C74,-126 50,-79 50,-79 C50,-79 104,-198 104,-198 C104,-198 150,-310 150,-310 C150,-310 170,-360 170,-360 C170,-360 188,-430 188,-430 C188,-430 192,-496 192,-496 C192,-496 170,-528 170,-528z "/></g></g></g></g></g><g id="_R_G_L_1_G_M"><g id="_R_G_L_1_G" transform=" translate(251.75, 84.25) rotate(59) scale(1.04, 1.04) translate(-225, -225)"><g id="_R_G_L_1_G_L_0_G_M"><g id="_R_G_L_1_G_L_0_G" transform=" translate(226.709, 224.575) scale(0.42, 0.42) translate(-4.069, 1.012)"><path id="_R_G_L_1_G_L_0_G_D_0_P_0" stroke="#ff4646" stroke-linecap="round" stroke-linejoin="round" fill="none" stroke-width="63" stroke-opacity="1" d=" M380.04 -346.5 C348.83,-287.6 278.91,-258.37 212.36,-254.73 C145.81,-251.09 80.16,-268.25 14.46,-279.45 C-51.23,-290.65 -121.24,-295.46 -182.29,-268.71 C-210.75,-256.25 -237.3,-235.85 -249.25,-207.17 C-261.2,-178.5 -254.67,-140.95 -228.93,-123.55 C-193.07,-99.29 -137.08,-120.61 -105.72,-90.76 C-87.48,-73.4 -85.62,-43.3 -96.9,-20.78 C-108.17,1.74 -130.11,17.34 -153.45,26.83 C-227.62,56.97 -317.61,33.24 -387.6,72.13 C-441.82,102.24 -472.29,169.81 -458.98,230.39 C-445.67,290.96 -389.67,339.52 -327.83,344.14 C-296.19,346.5 -261.52,336.54 -243.29,310.58 C-226.78,287.07 -226.37,254.86 -209.03,231.95 C-180.39,194.12 -122.47,199.11 -80,177.93 C-44.09,160.02 -21.16,124.2 -0.56,89.77 C20.04,55.33 41.61,19.04 76.36,-1.04 C111.1,-21.12 163.21,-17.3 182.83,17.71 C199.92,48.23 186.03,85.84 183.88,120.76 C180.39,177.25 212.32,234.41 262.24,261.07 C312.17,287.73 377.43,282.46 422.44,248.14 C448.8,228.04 468.53,197.55 470.12,164.43 C472.29,119.03 441.94,79.54 416.49,41.88 C391.04,4.23 368.57,-43.64 387.21,-85.09 C392.26,-96.33 400.12,-106.29 409.94,-113.72 "/></g></g></g></g><g id="_R_G_L_0_G_M"><g id="_R_G_L_0_G" transform=" translate(251.75, 84.25) rotate(59) scale(1.04, 1.04) translate(-225, -225)"><g id="_R_G_L_0_G_L_0_G_M"><g id="_R_G_L_0_G_L_0_G" transform=" translate(226.709, 224.575) scale(0.42, 0.42) translate(-4.069, 1.012)"><path id="_R_G_L_0_G_L_0_G_D_0_P_0" stroke="#ff4646" stroke-linecap="round" stroke-linejoin="round" fill="none" stroke-width="63" stroke-opacity="1" d=" M380.04 -346.5 C348.83,-287.6 278.91,-258.37 212.36,-254.73 C145.81,-251.09 80.16,-268.25 14.46,-279.45 C-51.23,-290.65 -121.24,-295.46 -182.29,-268.71 C-210.75,-256.25 -237.3,-235.85 -249.25,-207.17 C-261.2,-178.5 -254.67,-140.95 -228.93,-123.55 C-193.07,-99.29 -137.08,-120.61 -105.72,-90.76 C-87.48,-73.4 -85.62,-43.3 -96.9,-20.78 C-108.17,1.74 -130.11,17.34 -153.45,26.83 C-227.62,56.97 -317.61,33.24 -387.6,72.13 C-441.82,102.24 -472.29,169.81 -458.98,230.39 C-445.67,290.96 -389.67,339.52 -327.83,344.14 C-296.19,346.5 -261.52,336.54 -243.29,310.58 C-226.78,287.07 -226.37,254.86 -209.03,231.95 C-180.39,194.12 -122.47,199.11 -80,177.93 C-44.09,160.02 -21.16,124.2 -0.56,89.77 C20.04,55.33 41.61,19.04 76.36,-1.04 C111.1,-21.12 163.21,-17.3 182.83,17.71 C199.92,48.23 186.03,85.84 183.88,120.76 C180.39,177.25 212.32,234.41 262.24,261.07 C312.17,287.73 377.43,282.46 422.44,248.14 C448.8,228.04 468.53,197.55 470.12,164.43 C472.29,119.03 441.94,79.54 416.49,41.88 C391.04,4.23 368.57,-43.64 387.21,-85.09 C392.26,-96.33 400.12,-106.29 409.94,-113.72 "/></g></g></g></g></g><g id="time_group"/></svg>